<?xml version="1.0" standalone="no"?>
<!DOCTYPE svg PUBLIC "-//W3C//DTD SVG 20010904//EN"
 "http://www.w3.org/TR/2001/REC-SVG-20010904/DTD/svg10.dtd">
<svg version="1.0" xmlns="http://www.w3.org/2000/svg"
 width="1600.000000pt" height="1600.000000pt" viewBox="0 0 1600.000000 1600.000000"
 preserveAspectRatio="xMidYMid meet">
<metadata>
Created by potrace 1.11, written by Peter Selinger 2001-2013
</metadata>
<g transform="translate(0.000000,1600.000000) scale(0.100000,-0.100000)"
fill="#000000" stroke="none">
<path d="M11878 14506 c-1 -2 -75 -6 -163 -9 -88 -4 -171 -8 -185 -11 -14 -2
-56 -7 -95 -11 -38 -4 -128 -18 -200 -31 -71 -14 -139 -26 -150 -28 -46 -8
-246 -60 -344 -90 -726 -223 -1466 -650 -2010 -1161 -35 -33 -586 -581 -1224
-1219 l-1159 -1158 -677 225 c-843 281 -822 276 -1036 277 -245 2 -468 -65
-684 -206 -73 -49 -251 -222 -1200 -1168 -612 -611 -1133 -1138 -1157 -1171
-130 -175 -126 -416 8 -587 28 -35 154 -162 208 -208 46 -40 150 -85 220 -96
19 -3 62 -12 95 -20 33 -7 78 -16 100 -19 22 -4 78 -15 125 -25 47 -10 99 -21
115 -24 17 -3 44 -8 60 -11 17 -3 233 -47 480 -96 429 -87 455 -91 558 -87
l107 3 21 -55 c55 -148 55 -148 715 -810 343 -344 625 -628 626 -631 2 -4 -49
-60 -112 -126 -63 -65 -130 -144 -149 -176 -36 -61 -77 -156 -85 -197 -2 -14
-8 -43 -14 -66 -13 -56 -6 -228 11 -294 36 -132 91 -233 180 -328 55 -58 150
-129 207 -154 65 -30 113 -48 134 -52 97 -20 128 -23 209 -21 143 3 275 46
397 128 25 17 95 79 155 138 l110 108 618 -617 c394 -394 639 -631 676 -655
32 -21 95 -52 140 -70 45 -18 79 -36 76 -39 -12 -12 -17 -196 -6 -248 6 -30
13 -68 16 -85 3 -16 7 -39 9 -50 9 -40 175 -871 180 -900 3 -16 8 -39 10 -50
3 -11 20 -98 39 -194 47 -235 70 -280 215 -425 118 -119 172 -155 271 -186 62
-20 167 -27 221 -15 14 2 35 7 46 9 12 2 52 19 90 36 66 31 117 80 1194 1156
619 619 1146 1153 1173 1188 166 220 249 469 249 743 0 56 -3 115 -6 130 -3
15 -8 48 -12 73 -3 24 -7 47 -9 51 -2 3 -7 19 -10 36 -4 28 -235 733 -254 778
-5 11 -54 159 -110 328 -87 262 -100 311 -89 325 7 9 531 534 1163 1167 1244
1246 1219 1220 1351 1376 77 91 111 134 182 227 48 64 125 173 186 267 369
561 616 1140 742 1740 28 135 48 267 59 395 4 41 8 93 10 115 5 59 6 329 1
413 -24 383 -145 808 -316 1104 -22 38 -40 71 -40 73 0 16 -176 261 -257 357
-57 69 -272 276 -353 341 -207 167 -501 333 -730 412 -109 37 -299 90 -360
100 -19 3 -46 8 -60 10 -14 3 -36 8 -50 10 -14 3 -47 8 -75 11 -27 3 -61 7
-74 9 -14 3 -81 7 -150 10 -69 4 -131 8 -138 10 -6 2 -13 2 -15 1z m267 -530
c39 -5 89 -13 150 -22 75 -12 239 -56 335 -89 134 -47 378 -165 388 -187 2 -5
9 -8 15 -8 16 0 179 -121 262 -194 64 -57 137 -131 185 -186 12 -14 34 -39 49
-55 80 -88 254 -381 300 -505 32 -88 81 -233 85 -253 2 -12 11 -49 19 -82 15
-63 31 -159 47 -285 9 -76 6 -519 -4 -575 -3 -16 -10 -66 -16 -110 -6 -44 -15
-102 -20 -130 -5 -27 -12 -65 -15 -83 -3 -18 -21 -95 -40 -170 -52 -200 -124
-409 -227 -653 -43 -103 -215 -438 -271 -529 -12 -19 -26 -43 -32 -52 -104
-182 -327 -482 -506 -683 -46 -51 -900 -909 -1897 -1906 l-1813 -1813 -337
337 -337 337 -177 -177 -177 -176 335 -335 c184 -183 334 -337 334 -340 0 -4
-72 -79 -161 -167 l-160 -159 -674 674 -675 675 709 710 c454 454 721 730 744
765 39 63 81 163 98 235 15 66 19 220 7 287 -26 143 -103 290 -205 391 -85 83
-170 135 -278 170 -159 51 -352 47 -504 -10 -143 -53 -150 -60 -896 -804
l-710 -709 -675 675 -674 674 159 160 c88 88 163 161 166 161 3 0 157 -150
341 -334 l335 -335 176 177 177 177 -337 337 -337 337 1844 1843 c1015 1014
1872 1866 1904 1893 33 28 67 57 76 65 81 76 361 279 529 384 188 118 416 240
601 320 47 21 94 41 105 46 22 10 95 39 165 65 277 105 672 199 926 221 43 4
81 8 84 11 6 5 456 -4 505 -11z m-7459 -3187 c67 -2 221 -43 339 -89 11 -4 65
-22 120 -39 55 -18 109 -36 120 -41 11 -4 166 -56 345 -115 179 -59 328 -109
332 -112 4 -2 -507 -518 -1136 -1147 -1258 -1257 -1177 -1184 -1293 -1173 -57
5 -76 8 -163 27 -25 5 -56 12 -70 14 -14 3 -71 14 -128 25 -56 11 -117 23
-135 26 -17 4 -52 11 -77 16 -58 14 -60 14 -160 33 -47 9 -94 18 -105 20 -16
4 -162 33 -260 52 -11 2 -42 8 -70 14 -67 14 -95 19 -130 26 -83 15 -106 24
-145 60 -23 22 -48 43 -56 47 -8 4 -14 11 -14 15 0 12 2162 2169 2213 2207 92
70 217 119 334 131 32 4 60 8 62 10 2 2 7 2 10 -1 4 -2 34 -5 67 -6z m3370
-2640 c108 -52 153 -195 96 -305 -10 -20 -587 -605 -1318 -1336 -1010 -1012
-1309 -1305 -1344 -1321 -197 -89 -399 119 -302 310 18 34 2585 2611 2638
2647 58 40 154 42 230 5z m2533 -2790 c154 -465 193 -591 199 -655 17 -185
-33 -363 -144 -504 -41 -52 -560 -578 -1671 -1693 -278 -279 -507 -507 -509
-507 -2 0 -28 24 -59 54 l-56 54 -30 148 c-16 82 -31 158 -33 169 -21 103 -66
327 -70 351 -3 16 -8 38 -10 49 -7 30 -86 426 -92 455 -2 14 -14 70 -25 125
-23 110 -21 182 6 236 20 38 2287 2309 2296 2300 4 -3 93 -265 198 -582z"/>
<path d="M10318 11546 c-1 -2 -41 -6 -88 -10 -92 -6 -124 -11 -185 -28 -22 -6
-44 -11 -50 -12 -24 -5 -93 -29 -132 -47 -24 -10 -45 -19 -47 -19 -2 0 -37
-19 -78 -41 -206 -116 -382 -300 -487 -506 -35 -70 -80 -186 -87 -223 -3 -14
-8 -34 -11 -45 -9 -27 -12 -42 -19 -100 -3 -27 -8 -61 -10 -75 -12 -64 -3
-235 17 -340 24 -124 45 -184 110 -315 66 -133 119 -207 223 -311 233 -232
529 -355 858 -355 497 -1 949 309 1128 772 18 46 33 91 35 99 2 8 8 33 14 55
5 22 12 54 15 70 2 17 7 49 11 72 9 57 9 228 1 283 -4 25 -10 59 -12 75 -61
388 -358 756 -731 907 -108 43 -242 76 -343 84 -47 3 -95 7 -107 9 -12 2 -23
2 -25 1z"/>
</g>
</svg>
