<?xml version="1.0" encoding="UTF-8" standalone="no"?>
<!-- Created with Inkscape (http://www.inkscape.org/) -->

<svg
   xmlns:dc="http://purl.org/dc/elements/1.1/"
   xmlns:cc="http://creativecommons.org/ns#"
   xmlns:rdf="http://www.w3.org/1999/02/22-rdf-syntax-ns#"
   xmlns:svg="http://www.w3.org/2000/svg"
   xmlns="http://www.w3.org/2000/svg"
   xmlns:xlink="http://www.w3.org/1999/xlink"
   xmlns:sodipodi="http://sodipodi.sourceforge.net/DTD/sodipodi-0.dtd"
   xmlns:inkscape="http://www.inkscape.org/namespaces/inkscape"
   width="216.5"
   height="216.5"
   viewBox="0 0 216.5 216.5"
   id="svg2"
   version="1.1"
   inkscape:version="0.91 r13725"
   sodipodi:docname="apps-webuntis_20161128154633.svg">
  <defs
     id="defs4">
    <linearGradient
       id="linearGradient4531"
       inkscape:collect="always">
      <stop
         id="stop4533"
         offset="0"
         style="stop-color:#fdd418;stop-opacity:1" />
      <stop
         id="stop4535"
         offset="1"
         style="stop-color:#fdd418;stop-opacity:1" />
    </linearGradient>
    <linearGradient
       id="linearGradient4525"
       inkscape:collect="always">
      <stop
         id="stop4527"
         offset="0"
         style="stop-color:#e15923;stop-opacity:1" />
      <stop
         id="stop4529"
         offset="1"
         style="stop-color:#bd3a25;stop-opacity:1" />
    </linearGradient>
    <linearGradient
       inkscape:collect="always"
       id="linearGradient4487">
      <stop
         style="stop-color:#518bf2;stop-opacity:1"
         offset="0"
         id="stop4489" />
      <stop
         style="stop-color:#3651b5;stop-opacity:1"
         offset="1"
         id="stop4491" />
    </linearGradient>
    <linearGradient
       id="linearGradient4425"
       inkscape:collect="always">
      <stop
         id="stop4427"
         offset="0"
         style="stop-color:#292929;stop-opacity:1" />
      <stop
         style="stop-color:#b4b5b5;stop-opacity:1"
         offset="0.50570238"
         id="stop4429" />
      <stop
         id="stop4431"
         offset="1"
         style="stop-color:#292929;stop-opacity:1" />
    </linearGradient>
    <linearGradient
       inkscape:collect="always"
       id="linearGradient4403">
      <stop
         style="stop-color:#fceee5;stop-opacity:1"
         offset="0"
         id="stop4405" />
      <stop
         id="stop4413"
         offset="0.50570238"
         style="stop-color:#ffffff;stop-opacity:1" />
      <stop
         style="stop-color:#dadada;stop-opacity:1"
         offset="1"
         id="stop4407" />
    </linearGradient>
    <linearGradient
       inkscape:collect="always"
       xlink:href="#linearGradient4403"
       id="linearGradient4409"
       x1="56.79163"
       y1="76.287056"
       x2="180.79416"
       y2="187.30281"
       gradientUnits="userSpaceOnUse"
       gradientTransform="matrix(1.0605187,0,0,1.0605187,-7.2319885,-7.8476827)" />
    <linearGradient
       inkscape:collect="always"
       xlink:href="#linearGradient4487"
       id="linearGradient4493"
       x1="117.68725"
       y1="132.9162"
       x2="117.68725"
       y2="52.306026"
       gradientUnits="userSpaceOnUse" />
    <filter
       inkscape:collect="always"
       style="color-interpolation-filters:sRGB"
       id="filter4501"
       x="-0.097346932"
       width="1.1946939"
       y="-0.013687231"
       height="1.0273745">
      <feGaussianBlur
         inkscape:collect="always"
         stdDeviation="0.49687498"
         id="feGaussianBlur4503" />
    </filter>
    <linearGradient
       inkscape:collect="always"
       xlink:href="#linearGradient4525"
       id="linearGradient4515"
       gradientUnits="userSpaceOnUse"
       x1="117.68725"
       y1="132.9162"
       x2="117.68725"
       y2="52.306026" />
    <linearGradient
       inkscape:collect="always"
       xlink:href="#linearGradient4531"
       id="linearGradient4523"
       gradientUnits="userSpaceOnUse"
       x1="117.68725"
       y1="132.9162"
       x2="117.68725"
       y2="52.306026" />
    <filter
       inkscape:collect="always"
       style="color-interpolation-filters:sRGB"
       id="filter4559"
       x="-0.048"
       width="1.096"
       y="-0.048"
       height="1.096">
      <feGaussianBlur
         inkscape:collect="always"
         stdDeviation="3.73"
         id="feGaussianBlur4561" />
    </filter>
    <linearGradient
       inkscape:collect="always"
       xlink:href="#linearGradient4425"
       id="linearGradient4619"
       gradientUnits="userSpaceOnUse"
       x1="185.75"
       y1="61.923615"
       x2="52.75"
       y2="194.92361" />
    <filter
       inkscape:collect="always"
       style="color-interpolation-filters:sRGB"
       id="filter4719"
       x="-0.035999998"
       width="1.072"
       y="-0.035999998"
       height="1.072">
      <feGaussianBlur
         inkscape:collect="always"
         stdDeviation="2.73"
         id="feGaussianBlur4721" />
    </filter>
  </defs>
  <sodipodi:namedview
     id="base"
     pagecolor="#ffffff"
     bordercolor="#666666"
     borderopacity="1.0"
     inkscape:pageopacity="0.0"
     inkscape:pageshadow="2"
     inkscape:zoom="2"
     inkscape:cx="188.83392"
     inkscape:cy="118.61773"
     inkscape:document-units="px"
     inkscape:current-layer="layer2"
     showgrid="false"
     inkscape:window-width="1615"
     inkscape:window-height="1026"
     inkscape:window-x="1431"
     inkscape:window-y="24"
     inkscape:window-maximized="1"
     units="px"
     fit-margin-top="15"
     fit-margin-left="15"
     fit-margin-right="15"
     fit-margin-bottom="15"
     showguides="true"
     inkscape:guide-bbox="true"
     inkscape:snap-bbox="true"
     inkscape:snap-bbox-midpoints="true"
     inkscape:snap-global="true">
    <sodipodi:guide
       position="108.25,136.25022"
       orientation="1,0"
       id="guide4390" />
    <sodipodi:guide
       position="117.25,108.25022"
       orientation="0,1"
       id="guide4392" />
  </sodipodi:namedview>
  <metadata
     id="metadata7">
    <rdf:RDF>
      <cc:Work
         rdf:about="">
        <dc:format>image/svg+xml</dc:format>
        <dc:type
           rdf:resource="http://purl.org/dc/dcmitype/StillImage" />
        <dc:title></dc:title>
      </cc:Work>
    </rdf:RDF>
  </metadata>
  <g
     inkscape:label="Ebene 1"
     inkscape:groupmode="layer"
     id="layer1"
     transform="translate(8.112954,-854.53852)" />
  <g
     inkscape:groupmode="layer"
     id="layer2"
     inkscape:label="Ebene 2"
     transform="translate(-11.25,-21.423828)">
    <circle
       style="color:#000000;clip-rule:nonzero;display:inline;overflow:visible;visibility:visible;opacity:1;isolation:auto;mix-blend-mode:normal;color-interpolation:sRGB;color-interpolation-filters:linearRGB;solid-color:#000000;solid-opacity:1;fill:#000000;fill-opacity:0.3237705;fill-rule:nonzero;stroke:none;stroke-width:1;stroke-linecap:round;stroke-linejoin:round;stroke-miterlimit:4;stroke-dasharray:none;stroke-dashoffset:0;stroke-opacity:1;marker:none;filter:url(#filter4559);color-rendering:auto;image-rendering:auto;shape-rendering:auto;text-rendering:auto;enable-background:accumulate"
       id="circle4537"
       cx="121.5"
       cy="133.67361"
       r="93.25" />
    <circle
       style="color:#000000;clip-rule:nonzero;display:inline;overflow:visible;visibility:visible;opacity:1;isolation:auto;mix-blend-mode:normal;color-interpolation:sRGB;color-interpolation-filters:linearRGB;solid-color:#000000;solid-opacity:1;fill:url(#linearGradient4409);fill-opacity:1;fill-rule:nonzero;stroke:none;stroke-width:1;stroke-linecap:round;stroke-linejoin:round;stroke-miterlimit:4;stroke-dasharray:none;stroke-dashoffset:0;stroke-opacity:1;marker:none;color-rendering:auto;image-rendering:auto;shape-rendering:auto;text-rendering:auto;enable-background:accumulate"
       id="path4395"
       cx="119.5"
       cy="129.67361"
       r="92" />
    <g
       id="g4470"
       transform="matrix(0.5,-0.8660254,0.8660254,0.5,-52.550461,168.32575)" />
    <g
       id="g4575">
      <g
         id="g4585">
        <g
           id="g4448"
           transform="matrix(0,1,-1,0,249.17285,10.172852)">
          <path
             style="color:#000000;clip-rule:nonzero;display:inline;overflow:visible;visibility:visible;opacity:1;isolation:auto;mix-blend-mode:normal;color-interpolation:sRGB;color-interpolation-filters:linearRGB;solid-color:#000000;solid-opacity:1;fill:#252525;fill-opacity:1;fill-rule:nonzero;stroke:none;stroke-width:1;stroke-linecap:round;stroke-linejoin:round;stroke-miterlimit:4;stroke-dasharray:none;stroke-dashoffset:0;stroke-opacity:1;marker:none;color-rendering:auto;image-rendering:auto;shape-rendering:auto;text-rendering:auto;enable-background:accumulate"
             d="m 117.55664,46.453125 c 0,0 -0.002,0.002 -0.002,0.002 l 0,9.898438 3.89062,0 0,-9.898438 c 0,0 -0.002,-0.002 -0.002,-0.002 l -3.88672,0 z m -0.002,156.541015 0,9.89844 c 0,0 0.002,0 0.002,0 l 3.88672,0 c 0,0 0.002,0 0.002,0 l 0,-9.89844 -3.89062,0 z"
             id="path4450"
             inkscape:connector-curvature="0" />
        </g>
        <g
           transform="matrix(-0.70710678,0.70710678,-0.70710678,-0.70710678,295.69181,136.86614)"
           id="g4563">
          <path
             inkscape:connector-curvature="0"
             id="path4565"
             d="m 117.55664,46.453125 c 0,0 -0.002,0.002 -0.002,0.002 l 0,9.898438 3.89062,0 0,-9.898438 c 0,0 -0.002,-0.002 -0.002,-0.002 l -3.88672,0 z m -0.002,156.541015 0,9.89844 c 0,0 0.002,0 0.002,0 l 3.88672,0 c 0,0 0.002,0 0.002,0 l 0,-9.89844 -3.89062,0 z"
             style="color:#000000;clip-rule:nonzero;display:inline;overflow:visible;visibility:visible;opacity:1;isolation:auto;mix-blend-mode:normal;color-interpolation:sRGB;color-interpolation-filters:linearRGB;solid-color:#000000;solid-opacity:1;fill:#252525;fill-opacity:1;fill-rule:nonzero;stroke:none;stroke-width:1;stroke-linecap:round;stroke-linejoin:round;stroke-miterlimit:4;stroke-dasharray:none;stroke-dashoffset:0;stroke-opacity:1;marker:none;color-rendering:auto;image-rendering:auto;shape-rendering:auto;text-rendering:auto;enable-background:accumulate" />
        </g>
        <g
           id="g4567"
           transform="matrix(-1,0,0,-1,238.99927,259.34596)">
          <path
             style="color:#000000;clip-rule:nonzero;display:inline;overflow:visible;visibility:visible;opacity:1;isolation:auto;mix-blend-mode:normal;color-interpolation:sRGB;color-interpolation-filters:linearRGB;solid-color:#000000;solid-opacity:1;fill:#252525;fill-opacity:1;fill-rule:nonzero;stroke:none;stroke-width:1;stroke-linecap:round;stroke-linejoin:round;stroke-miterlimit:4;stroke-dasharray:none;stroke-dashoffset:0;stroke-opacity:1;marker:none;color-rendering:auto;image-rendering:auto;shape-rendering:auto;text-rendering:auto;enable-background:accumulate"
             d="m 117.55664,46.453125 c 0,0 -0.002,0.002 -0.002,0.002 l 0,9.898438 3.89062,0 0,-9.898438 c 0,0 -0.002,-0.002 -0.002,-0.002 l -3.88672,0 z m -0.002,156.541015 0,9.89844 c 0,0 0.002,0 0.002,0 l 3.88672,0 c 0,0 0.002,0 0.002,0 l 0,-9.89844 -3.89062,0 z"
             id="path4569"
             inkscape:connector-curvature="0" />
        </g>
        <g
           transform="matrix(-0.70710678,-0.70710678,0.70710678,-0.70710678,112.30598,305.86492)"
           id="g4571">
          <path
             inkscape:connector-curvature="0"
             id="path4573"
             d="m 117.55664,46.453125 c 0,0 -0.002,0.002 -0.002,0.002 l 0,9.898438 3.89062,0 0,-9.898438 c 0,0 -0.002,-0.002 -0.002,-0.002 l -3.88672,0 z m -0.002,156.541015 0,9.89844 c 0,0 0.002,0 0.002,0 l 3.88672,0 c 0,0 0.002,0 0.002,0 l 0,-9.89844 -3.89062,0 z"
             style="color:#000000;clip-rule:nonzero;display:inline;overflow:visible;visibility:visible;opacity:1;isolation:auto;mix-blend-mode:normal;color-interpolation:sRGB;color-interpolation-filters:linearRGB;solid-color:#000000;solid-opacity:1;fill:#252525;fill-opacity:1;fill-rule:nonzero;stroke:none;stroke-width:1;stroke-linecap:round;stroke-linejoin:round;stroke-miterlimit:4;stroke-dasharray:none;stroke-dashoffset:0;stroke-opacity:1;marker:none;color-rendering:auto;image-rendering:auto;shape-rendering:auto;text-rendering:auto;enable-background:accumulate" />
        </g>
      </g>
      <g
         id="g4595"
         transform="matrix(0.92260741,0.38574028,-0.38574028,0.92260741,59.26853,-36.060215)">
        <g
           transform="matrix(0,1,-1,0,249.17285,10.172852)"
           id="g4597">
          <path
             inkscape:connector-curvature="0"
             id="path4599"
             d="m 117.55664,46.453125 c 0,0 -0.002,0.002 -0.002,0.002 l 0,9.898438 3.89062,0 0,-9.898438 c 0,0 -0.002,-0.002 -0.002,-0.002 l -3.88672,0 z m -0.002,156.541015 0,9.89844 c 0,0 0.002,0 0.002,0 l 3.88672,0 c 0,0 0.002,0 0.002,0 l 0,-9.89844 -3.89062,0 z"
             style="color:#000000;clip-rule:nonzero;display:inline;overflow:visible;visibility:visible;opacity:1;isolation:auto;mix-blend-mode:normal;color-interpolation:sRGB;color-interpolation-filters:linearRGB;solid-color:#000000;solid-opacity:1;fill:#252525;fill-opacity:1;fill-rule:nonzero;stroke:none;stroke-width:1;stroke-linecap:round;stroke-linejoin:round;stroke-miterlimit:4;stroke-dasharray:none;stroke-dashoffset:0;stroke-opacity:1;marker:none;color-rendering:auto;image-rendering:auto;shape-rendering:auto;text-rendering:auto;enable-background:accumulate" />
        </g>
        <g
           id="g4601"
           transform="matrix(-0.70710678,0.70710678,-0.70710678,-0.70710678,295.69181,136.86614)">
          <path
             style="color:#000000;clip-rule:nonzero;display:inline;overflow:visible;visibility:visible;opacity:1;isolation:auto;mix-blend-mode:normal;color-interpolation:sRGB;color-interpolation-filters:linearRGB;solid-color:#000000;solid-opacity:1;fill:#252525;fill-opacity:1;fill-rule:nonzero;stroke:none;stroke-width:1;stroke-linecap:round;stroke-linejoin:round;stroke-miterlimit:4;stroke-dasharray:none;stroke-dashoffset:0;stroke-opacity:1;marker:none;color-rendering:auto;image-rendering:auto;shape-rendering:auto;text-rendering:auto;enable-background:accumulate"
             d="m 117.55664,46.453125 c 0,0 -0.002,0.002 -0.002,0.002 l 0,9.898438 3.89062,0 0,-9.898438 c 0,0 -0.002,-0.002 -0.002,-0.002 l -3.88672,0 z m -0.002,156.541015 0,9.89844 c 0,0 0.002,0 0.002,0 l 3.88672,0 c 0,0 0.002,0 0.002,0 l 0,-9.89844 -3.89062,0 z"
             id="path4603"
             inkscape:connector-curvature="0" />
        </g>
        <g
           transform="matrix(-1,0,0,-1,238.99927,259.34596)"
           id="g4605">
          <path
             inkscape:connector-curvature="0"
             id="path4607"
             d="m 117.55664,46.453125 c 0,0 -0.002,0.002 -0.002,0.002 l 0,9.898438 3.89062,0 0,-9.898438 c 0,0 -0.002,-0.002 -0.002,-0.002 l -3.88672,0 z m -0.002,156.541015 0,9.89844 c 0,0 0.002,0 0.002,0 l 3.88672,0 c 0,0 0.002,0 0.002,0 l 0,-9.89844 -3.89062,0 z"
             style="color:#000000;clip-rule:nonzero;display:inline;overflow:visible;visibility:visible;opacity:1;isolation:auto;mix-blend-mode:normal;color-interpolation:sRGB;color-interpolation-filters:linearRGB;solid-color:#000000;solid-opacity:1;fill:#252525;fill-opacity:1;fill-rule:nonzero;stroke:none;stroke-width:1;stroke-linecap:round;stroke-linejoin:round;stroke-miterlimit:4;stroke-dasharray:none;stroke-dashoffset:0;stroke-opacity:1;marker:none;color-rendering:auto;image-rendering:auto;shape-rendering:auto;text-rendering:auto;enable-background:accumulate" />
        </g>
        <g
           id="g4609"
           transform="matrix(-0.70710678,-0.70710678,0.70710678,-0.70710678,112.30598,305.86492)">
          <path
             style="color:#000000;clip-rule:nonzero;display:inline;overflow:visible;visibility:visible;opacity:1;isolation:auto;mix-blend-mode:normal;color-interpolation:sRGB;color-interpolation-filters:linearRGB;solid-color:#000000;solid-opacity:1;fill:#252525;fill-opacity:1;fill-rule:nonzero;stroke:none;stroke-width:1;stroke-linecap:round;stroke-linejoin:round;stroke-miterlimit:4;stroke-dasharray:none;stroke-dashoffset:0;stroke-opacity:1;marker:none;color-rendering:auto;image-rendering:auto;shape-rendering:auto;text-rendering:auto;enable-background:accumulate"
             d="m 117.55664,46.453125 c 0,0 -0.002,0.002 -0.002,0.002 l 0,9.898438 3.89062,0 0,-9.898438 c 0,0 -0.002,-0.002 -0.002,-0.002 l -3.88672,0 z m -0.002,156.541015 0,9.89844 c 0,0 0.002,0 0.002,0 l 3.88672,0 c 0,0 0.002,0 0.002,0 l 0,-9.89844 -3.89062,0 z"
             id="path4611"
             inkscape:connector-curvature="0" />
        </g>
      </g>
    </g>
    <g
       id="g4505">
      <path
         style="color:#000000;clip-rule:nonzero;display:inline;overflow:visible;visibility:visible;opacity:1;isolation:auto;mix-blend-mode:normal;color-interpolation:sRGB;color-interpolation-filters:linearRGB;solid-color:#000000;solid-opacity:1;fill:#130902;fill-opacity:0.397541;fill-rule:nonzero;stroke:none;stroke-width:1;stroke-linecap:round;stroke-linejoin:round;stroke-miterlimit:4;stroke-dasharray:none;stroke-dashoffset:0;stroke-opacity:1;marker:none;filter:url(#filter4501);color-rendering:auto;image-rendering:auto;shape-rendering:auto;text-rendering:auto;enable-background:accumulate"
         d="m 120.3945,49.74812 c 0,0 6.125,8.125444 6.125,8.125995 l 0,78.998005 c 0,5.5e-4 -4.4e-4,9.9e-4 -10e-4,9.9e-4 l -12.248,0 c -5.6e-4,0 -0.001,-4.4e-4 -0.001,-9.9e-4 l 0,-78.998005 c 0,-5.51e-4 6.125,-8.125995 6.125,-8.125995 z"
         id="path4495"
         inkscape:connector-curvature="0"
         sodipodi:nodetypes="cccccccc" />
      <path
         sodipodi:nodetypes="cccccccc"
         inkscape:connector-curvature="0"
         id="rect4484"
         d="m 119.69398,49.048615 c 0,0 6.125,8.125444 6.125,8.125995 l 0,78.99801 c 0,5.5e-4 -4.4e-4,9.9e-4 -10e-4,9.9e-4 l -12.248,0 c -5.6e-4,0 -0.001,-4.4e-4 -0.001,-9.9e-4 l 0,-78.99801 c 0,-5.51e-4 6.125,-8.125995 6.125,-8.125995 z"
         style="color:#000000;clip-rule:nonzero;display:inline;overflow:visible;visibility:visible;opacity:1;isolation:auto;mix-blend-mode:normal;color-interpolation:sRGB;color-interpolation-filters:linearRGB;solid-color:#000000;solid-opacity:1;fill:url(#linearGradient4493);fill-opacity:1;fill-rule:nonzero;stroke:none;stroke-width:1;stroke-linecap:round;stroke-linejoin:round;stroke-miterlimit:4;stroke-dasharray:none;stroke-dashoffset:0;stroke-opacity:1;marker:none;color-rendering:auto;image-rendering:auto;shape-rendering:auto;text-rendering:auto;enable-background:accumulate" />
    </g>
    <g
       id="g4509"
       inkscape:transform-center-x="-24.162451"
       inkscape:transform-center-y="-23.407801"
       transform="matrix(0.70710678,0.70710678,-0.70710678,0.70710678,126.68754,-46.530138)">
      <path
         sodipodi:nodetypes="cccccccc"
         inkscape:connector-curvature="0"
         id="path4511"
         d="m 120.88925,49.818477 c 0,0 6.125,8.125444 6.125,8.125995 l 0,78.998018 c 0,5.5e-4 -4.4e-4,9.9e-4 -0.001,9.9e-4 l -12.248,0 c -5.6e-4,0 -10e-4,-4.4e-4 -10e-4,-9.9e-4 l 0,-78.998018 c 0,-5.51e-4 6.125,-8.125995 6.125,-8.125995 z"
         style="color:#000000;clip-rule:nonzero;display:inline;overflow:visible;visibility:visible;opacity:1;isolation:auto;mix-blend-mode:normal;color-interpolation:sRGB;color-interpolation-filters:linearRGB;solid-color:#000000;solid-opacity:1;fill:#130902;fill-opacity:0.397541;fill-rule:nonzero;stroke:none;stroke-width:1;stroke-linecap:round;stroke-linejoin:round;stroke-miterlimit:4;stroke-dasharray:none;stroke-dashoffset:0;stroke-opacity:1;marker:none;filter:url(#filter4501);color-rendering:auto;image-rendering:auto;shape-rendering:auto;text-rendering:auto;enable-background:accumulate" />
      <path
         style="color:#000000;clip-rule:nonzero;display:inline;overflow:visible;visibility:visible;opacity:1;isolation:auto;mix-blend-mode:normal;color-interpolation:sRGB;color-interpolation-filters:linearRGB;solid-color:#000000;solid-opacity:1;fill:url(#linearGradient4515);fill-opacity:1;fill-rule:nonzero;stroke:none;stroke-width:1;stroke-linecap:round;stroke-linejoin:round;stroke-miterlimit:4;stroke-dasharray:none;stroke-dashoffset:0;stroke-opacity:1;marker:none;color-rendering:auto;image-rendering:auto;shape-rendering:auto;text-rendering:auto;enable-background:accumulate"
         d="m 119.69398,49.048615 c 0,0 6.125,8.125444 6.125,8.125995 l 0,78.99801 c 0,5.5e-4 -4.4e-4,9.9e-4 -10e-4,9.9e-4 l -12.248,0 c -5.6e-4,0 -0.001,-4.4e-4 -0.001,-9.9e-4 l 0,-78.99801 c 0,-5.51e-4 6.125,-8.125995 6.125,-8.125995 z"
         id="path4513"
         inkscape:connector-curvature="0"
         sodipodi:nodetypes="cccccccc" />
    </g>
    <g
       transform="matrix(0,1,-1,0,249.17094,10.149705)"
       inkscape:transform-center-y="0.53361995"
       inkscape:transform-center-x="-36.69946"
       id="g4517">
      <path
         style="color:#000000;clip-rule:nonzero;display:inline;overflow:visible;visibility:visible;opacity:1;isolation:auto;mix-blend-mode:normal;color-interpolation:sRGB;color-interpolation-filters:linearRGB;solid-color:#000000;solid-opacity:1;fill:#130902;fill-opacity:0.397541;fill-rule:nonzero;stroke:none;stroke-width:1;stroke-linecap:round;stroke-linejoin:round;stroke-miterlimit:4;stroke-dasharray:none;stroke-dashoffset:0;stroke-opacity:1;marker:none;filter:url(#filter4501);color-rendering:auto;image-rendering:auto;shape-rendering:auto;text-rendering:auto;enable-background:accumulate"
         d="m 120.99441,49.148418 c 0,0 6.125,8.125444 6.125,8.125995 l 0,78.998037 c 0,5.5e-4 -4.4e-4,9.9e-4 -0.001,9.9e-4 l -12.248,0 c -5.6e-4,0 -0.001,-4.4e-4 -0.001,-9.9e-4 l 0,-78.998037 c 0,-5.51e-4 6.125,-8.125995 6.125,-8.125995 z"
         id="path4519"
         inkscape:connector-curvature="0"
         sodipodi:nodetypes="cccccccc" />
      <path
         sodipodi:nodetypes="cccccccc"
         inkscape:connector-curvature="0"
         id="path4521"
         d="m 119.69398,49.048615 c 0,0 6.125,8.125444 6.125,8.125995 l 0,78.99801 c 0,5.5e-4 -4.4e-4,9.9e-4 -10e-4,9.9e-4 l -12.248,0 c -5.6e-4,0 -0.001,-4.4e-4 -0.001,-9.9e-4 l 0,-78.99801 c 0,-5.51e-4 6.125,-8.125995 6.125,-8.125995 z"
         style="color:#000000;clip-rule:nonzero;display:inline;overflow:visible;visibility:visible;opacity:1;isolation:auto;mix-blend-mode:normal;color-interpolation:sRGB;color-interpolation-filters:linearRGB;solid-color:#000000;solid-opacity:1;fill:url(#linearGradient4523);fill-opacity:1;fill-rule:nonzero;stroke:none;stroke-width:1;stroke-linecap:round;stroke-linejoin:round;stroke-miterlimit:4;stroke-dasharray:none;stroke-dashoffset:0;stroke-opacity:1;marker:none;color-rendering:auto;image-rendering:auto;shape-rendering:auto;text-rendering:auto;enable-background:accumulate" />
    </g>
    <path
       style="color:#000000;clip-rule:nonzero;display:inline;overflow:visible;visibility:visible;opacity:1;isolation:auto;mix-blend-mode:normal;color-interpolation:sRGB;color-interpolation-filters:linearRGB;solid-color:#000000;solid-opacity:1;fill:#000000;fill-opacity:0.3237705;fill-rule:nonzero;stroke:none;stroke-width:1;stroke-linecap:round;stroke-linejoin:round;stroke-miterlimit:4;stroke-dasharray:none;stroke-dashoffset:0;stroke-opacity:1;marker:none;filter:url(#filter4719);color-rendering:auto;image-rendering:auto;shape-rendering:auto;text-rendering:auto;enable-background:accumulate"
       d="m 120.3,40.073605 a 91,90.999997 0 0 0 -91,91.000005 91,90.999997 0 0 0 91,91 91,90.999997 0 0 0 91,-91 91,90.999997 0 0 0 -91,-91.000005 z m 0,3.75 a 87.25,87.249997 0 0 1 87.25,87.250005 87.25,87.249997 0 0 1 -87.25,87.25 87.25,87.249997 0 0 1 -87.25,-87.25 87.25,87.249997 0 0 1 87.25,-87.250005 z"
       id="circle4632"
       inkscape:connector-curvature="0" />
    <path
       style="color:#000000;clip-rule:nonzero;display:inline;overflow:visible;visibility:visible;opacity:1;isolation:auto;mix-blend-mode:normal;color-interpolation:sRGB;color-interpolation-filters:linearRGB;solid-color:#000000;solid-opacity:1;fill:url(#linearGradient4619);fill-opacity:1;fill-rule:nonzero;stroke:none;stroke-width:1;stroke-linecap:round;stroke-linejoin:round;stroke-miterlimit:4;stroke-dasharray:none;stroke-dashoffset:0;stroke-opacity:1;marker:none;color-rendering:auto;image-rendering:auto;shape-rendering:auto;text-rendering:auto;enable-background:accumulate"
       d="m 119.5,36.423828 a 93.25,93.25 0 0 0 -93.25,93.250002 93.25,93.25 0 0 0 93.25,93.25 93.25,93.25 0 0 0 93.25,-93.25 93.25,93.25 0 0 0 -93.25,-93.250002 z m 0,6.5 a 86.75,86.75 0 0 1 86.75,86.750002 86.75,86.75 0 0 1 -86.75,86.75 86.75,86.75 0 0 1 -86.75,-86.75 86.75,86.75 0 0 1 86.75,-86.750002 z"
       id="circle4613"
       inkscape:connector-curvature="0" />
  </g>
</svg>
